<mxfile host="Electron" modified="2024-06-05T13:22:43.248Z" agent="Mozilla/5.0 (X11; Linux x86_64) AppleWebKit/537.36 (KHTML, like Gecko) draw.io/24.4.8 Chrome/124.0.6367.207 Electron/30.0.6 Safari/537.36" etag="NJhEdsEDkvni4-05KHF7" version="24.4.8" type="device">
  <diagram name="Page-1" id="sndqsV-ytKuUiPaopsuC">
    <mxGraphModel dx="1368" dy="838" grid="1" gridSize="10" guides="1" tooltips="1" connect="1" arrows="1" fold="1" page="1" pageScale="1" pageWidth="850" pageHeight="1100" math="0" shadow="0">
      <root>
        <mxCell id="0" />
        <mxCell id="1" parent="0" />
        <mxCell id="OhYgH_b7WB7i6jdWVojY-1" value="" style="whiteSpace=wrap;html=1;aspect=fixed;" vertex="1" parent="1">
          <mxGeometry x="260" y="210" width="370" height="370" as="geometry" />
        </mxCell>
        <mxCell id="OhYgH_b7WB7i6jdWVojY-2" value="" style="shape=mxgraph.signs.tech.camera_1;html=1;pointerEvents=1;fillColor=#000000;strokeColor=none;verticalLabelPosition=bottom;verticalAlign=top;align=center;rotation=-41;" vertex="1" parent="1">
          <mxGeometry x="190" y="580" width="70" height="60" as="geometry" />
        </mxCell>
        <mxCell id="OhYgH_b7WB7i6jdWVojY-3" value="" style="shape=mxgraph.signs.tech.camera_1;html=1;pointerEvents=1;fillColor=#000000;strokeColor=none;verticalLabelPosition=bottom;verticalAlign=top;align=center;rotation=-135;" vertex="1" parent="1">
          <mxGeometry x="620" y="580" width="70" height="60" as="geometry" />
        </mxCell>
        <mxCell id="OhYgH_b7WB7i6jdWVojY-4" value="" style="shape=mxgraph.signs.tech.camera_1;html=1;pointerEvents=1;fillColor=#000000;strokeColor=none;verticalLabelPosition=bottom;verticalAlign=top;align=center;rotation=-225;" vertex="1" parent="1">
          <mxGeometry x="630" y="150" width="70" height="60" as="geometry" />
        </mxCell>
        <mxCell id="OhYgH_b7WB7i6jdWVojY-5" value="" style="shape=mxgraph.signs.tech.camera_1;html=1;pointerEvents=1;fillColor=#000000;strokeColor=none;verticalLabelPosition=bottom;verticalAlign=top;align=center;rotation=45;" vertex="1" parent="1">
          <mxGeometry x="200" y="150" width="70" height="60" as="geometry" />
        </mxCell>
        <mxCell id="OhYgH_b7WB7i6jdWVojY-6" value="" style="ellipse;whiteSpace=wrap;html=1;aspect=fixed;fillColor=#d5e8d4;strokeColor=#82b366;" vertex="1" parent="1">
          <mxGeometry x="430" y="380" width="30" height="30" as="geometry" />
        </mxCell>
        <mxCell id="OhYgH_b7WB7i6jdWVojY-7" value="" style="endArrow=none;html=1;rounded=0;entryX=1;entryY=1;entryDx=0;entryDy=0;exitX=0;exitY=0;exitDx=0;exitDy=0;" edge="1" parent="1" source="OhYgH_b7WB7i6jdWVojY-1" target="OhYgH_b7WB7i6jdWVojY-1">
          <mxGeometry width="50" height="50" relative="1" as="geometry">
            <mxPoint x="140" y="400" as="sourcePoint" />
            <mxPoint x="190" y="350" as="targetPoint" />
          </mxGeometry>
        </mxCell>
        <mxCell id="OhYgH_b7WB7i6jdWVojY-8" value="" style="endArrow=none;html=1;rounded=0;entryX=1;entryY=0;entryDx=0;entryDy=0;exitX=0;exitY=1;exitDx=0;exitDy=0;" edge="1" parent="1" source="OhYgH_b7WB7i6jdWVojY-1" target="OhYgH_b7WB7i6jdWVojY-1">
          <mxGeometry width="50" height="50" relative="1" as="geometry">
            <mxPoint x="510" y="690" as="sourcePoint" />
            <mxPoint x="560" y="640" as="targetPoint" />
          </mxGeometry>
        </mxCell>
        <mxCell id="OhYgH_b7WB7i6jdWVojY-10" value="" style="rounded=0;whiteSpace=wrap;html=1;" vertex="1" parent="1">
          <mxGeometry x="750" y="275" width="460" height="240" as="geometry" />
        </mxCell>
        <mxCell id="OhYgH_b7WB7i6jdWVojY-13" value="" style="endArrow=classic;html=1;rounded=0;entryX=0;entryY=0.5;entryDx=0;entryDy=0;entryPerimeter=0;exitX=0.75;exitY=1;exitDx=0;exitDy=0;" edge="1" parent="1" source="OhYgH_b7WB7i6jdWVojY-10" target="OhYgH_b7WB7i6jdWVojY-2">
          <mxGeometry width="50" height="50" relative="1" as="geometry">
            <mxPoint x="970" y="780" as="sourcePoint" />
            <mxPoint x="740" y="740" as="targetPoint" />
            <Array as="points">
              <mxPoint x="1095" y="680" />
              <mxPoint x="199" y="690" />
            </Array>
          </mxGeometry>
        </mxCell>
        <mxCell id="OhYgH_b7WB7i6jdWVojY-14" value="" style="endArrow=classic;html=1;rounded=0;entryX=0;entryY=0.5;entryDx=0;entryDy=0;entryPerimeter=0;exitX=0.25;exitY=1;exitDx=0;exitDy=0;" edge="1" parent="1" source="OhYgH_b7WB7i6jdWVojY-10" target="OhYgH_b7WB7i6jdWVojY-3">
          <mxGeometry width="50" height="50" relative="1" as="geometry">
            <mxPoint x="870" y="660" as="sourcePoint" />
            <mxPoint x="920" y="610" as="targetPoint" />
            <Array as="points">
              <mxPoint x="865" y="635" />
            </Array>
          </mxGeometry>
        </mxCell>
        <mxCell id="OhYgH_b7WB7i6jdWVojY-15" value="" style="endArrow=classic;html=1;rounded=0;entryX=0;entryY=0.5;entryDx=0;entryDy=0;entryPerimeter=0;exitX=0.25;exitY=0;exitDx=0;exitDy=0;" edge="1" parent="1" source="OhYgH_b7WB7i6jdWVojY-10" target="OhYgH_b7WB7i6jdWVojY-4">
          <mxGeometry width="50" height="50" relative="1" as="geometry">
            <mxPoint x="860" y="490" as="sourcePoint" />
            <mxPoint x="910" y="440" as="targetPoint" />
            <Array as="points">
              <mxPoint x="865" y="155" />
            </Array>
          </mxGeometry>
        </mxCell>
        <mxCell id="OhYgH_b7WB7i6jdWVojY-16" value="" style="endArrow=classic;html=1;rounded=0;exitX=0.75;exitY=0;exitDx=0;exitDy=0;entryX=0;entryY=0.5;entryDx=0;entryDy=0;entryPerimeter=0;" edge="1" parent="1" source="OhYgH_b7WB7i6jdWVojY-10" target="OhYgH_b7WB7i6jdWVojY-5">
          <mxGeometry width="50" height="50" relative="1" as="geometry">
            <mxPoint x="1090" y="270" as="sourcePoint" />
            <mxPoint x="210" y="70" as="targetPoint" />
            <Array as="points">
              <mxPoint x="1100" y="110" />
              <mxPoint x="210" y="110" />
            </Array>
          </mxGeometry>
        </mxCell>
        <mxCell id="OhYgH_b7WB7i6jdWVojY-20" value="" style="rounded=0;whiteSpace=wrap;html=1;strokeColor=#00994D;" vertex="1" parent="1">
          <mxGeometry x="957.5" y="347.5" width="45" height="95" as="geometry" />
        </mxCell>
        <mxCell id="OhYgH_b7WB7i6jdWVojY-18" value="" style="endArrow=none;html=1;rounded=0;entryX=0.5;entryY=0;entryDx=0;entryDy=0;exitX=0.5;exitY=1;exitDx=0;exitDy=0;fillColor=#f8cecc;strokeColor=#b85450;" edge="1" parent="1" source="OhYgH_b7WB7i6jdWVojY-21" target="OhYgH_b7WB7i6jdWVojY-10">
          <mxGeometry width="50" height="50" relative="1" as="geometry">
            <mxPoint x="940" y="350" as="sourcePoint" />
            <mxPoint x="990" y="300" as="targetPoint" />
          </mxGeometry>
        </mxCell>
        <mxCell id="OhYgH_b7WB7i6jdWVojY-22" value="" style="endArrow=none;html=1;rounded=0;entryX=0.5;entryY=0;entryDx=0;entryDy=0;exitX=0.5;exitY=1;exitDx=0;exitDy=0;fillColor=#f8cecc;strokeColor=#b85450;" edge="1" parent="1" source="OhYgH_b7WB7i6jdWVojY-10" target="OhYgH_b7WB7i6jdWVojY-21">
          <mxGeometry width="50" height="50" relative="1" as="geometry">
            <mxPoint x="980" y="515" as="sourcePoint" />
            <mxPoint x="980" y="275" as="targetPoint" />
          </mxGeometry>
        </mxCell>
        <mxCell id="OhYgH_b7WB7i6jdWVojY-21" value="" style="shape=umlActor;verticalLabelPosition=bottom;verticalAlign=top;html=1;outlineConnect=0;" vertex="1" parent="1">
          <mxGeometry x="965" y="365" width="30" height="60" as="geometry" />
        </mxCell>
        <mxCell id="OhYgH_b7WB7i6jdWVojY-23" value="0Â°" style="text;html=1;align=center;verticalAlign=middle;whiteSpace=wrap;rounded=0;" vertex="1" parent="1">
          <mxGeometry x="950" y="245" width="60" height="30" as="geometry" />
        </mxCell>
        <mxCell id="OhYgH_b7WB7i6jdWVojY-24" value="" style="endArrow=classic;startArrow=classic;html=1;rounded=0;" edge="1" parent="1">
          <mxGeometry width="50" height="50" relative="1" as="geometry">
            <mxPoint x="1010" y="347.5" as="sourcePoint" />
            <mxPoint x="1010" y="440" as="targetPoint" />
          </mxGeometry>
        </mxCell>
      </root>
    </mxGraphModel>
  </diagram>
</mxfile>
